<svg width="41" height="24" viewBox="0 0 41 24" fill="none" xmlns="http://www.w3.org/2000/svg">
<path d="M28.8068 20.4454L28.8267 20.45C29.4421 20.5814 30.0437 20.6943 30.6194 20.7829C32.1006 21.0226 33.4443 21.125 34.602 21.0959C35.877 21.0624 36.952 20.8608 37.7735 20.4851C38.54 20.1385 39.0775 19.6453 39.3463 18.9948C39.3661 18.9551 39.3799 18.9169 39.3952 18.8726C39.4104 18.8284 39.4242 18.7902 39.4349 18.7459C39.6792 17.8954 39.444 16.8982 38.8042 15.8187C38.1201 14.6612 36.9764 13.4198 35.4662 12.1692C35.1043 11.876 34.7332 11.5828 34.3469 11.2942C34.1026 11.1079 33.843 10.9186 33.5742 10.7323C33.5941 11.0163 33.6032 11.3034 33.6032 11.592C33.6032 11.734 33.6032 11.8699 33.5987 12.0119C33.7987 12.1585 33.9896 12.3051 34.1697 12.4425C34.3896 12.6135 34.6049 12.7845 34.8095 12.9601C36.1136 14.0397 37.126 15.0766 37.7567 16.005C38.3919 16.938 38.6515 17.7793 38.4499 18.4634C38.4453 18.4924 38.4346 18.5169 38.43 18.5367C38.4209 18.5566 38.4102 18.581 38.401 18.61C38.2056 19.0895 37.7505 19.4453 37.0863 19.685C36.4465 19.9202 35.5959 20.0469 34.5744 20.0759C33.4597 20.1049 32.1648 20.0026 30.734 19.7736C30.5477 19.7446 30.3629 19.7095 30.1721 19.6759H30.1522C29.5613 19.569 28.9505 19.4407 28.3244 19.2941L28.3 19.2895C27.7869 19.1674 27.2586 19.0361 26.7211 18.8833H26.7058C26.5256 18.8299 26.3439 18.781 26.1591 18.7276C25.8507 18.639 25.5438 18.5474 25.2353 18.4497L25.22 18.4451C24.6184 18.2588 24.0076 18.0542 23.3922 17.8389C22.473 17.5167 21.5308 17.1548 20.578 16.7593L20.3383 16.657C20.3291 16.657 20.3138 16.6524 20.3047 16.6478C19.4251 16.2768 18.57 15.8904 17.7393 15.495C17.7347 15.4904 17.7241 15.4858 17.7149 15.4797C17.1438 15.2064 16.5819 14.9223 16.0337 14.6399L16.0184 14.6307C15.4275 14.3222 14.8548 14.0046 14.3036 13.687C13.6729 13.3297 13.0729 12.9632 12.4956 12.5921C12.4804 12.5876 12.4666 12.5769 12.4559 12.5677C11.2435 11.7905 10.1548 11.0041 9.21565 10.2268C8.32082 9.48931 7.56958 8.77007 6.97707 8.09669C6.49759 7.54391 6.12196 7.01712 5.87307 6.52391C5.77534 6.62164 5.6822 6.72853 5.60432 6.85069C5.48216 7.04156 5.38443 7.26145 5.31114 7.51492C5.6486 8.05242 6.07767 8.60978 6.59688 9.17171C7.15423 9.77793 7.81389 10.3979 8.56057 11.0132C9.26452 11.595 10.0418 12.1814 10.8969 12.7632C10.9015 12.7678 10.9121 12.7723 10.9213 12.783C11.4741 13.1587 12.0605 13.5358 12.6713 13.9115C12.6804 13.9161 12.6911 13.9206 12.7003 13.9313C13.0469 14.142 13.3996 14.3512 13.76 14.5574C14.6594 15.075 15.6015 15.579 16.5895 16.0722C16.6048 16.0768 16.6139 16.0813 16.6292 16.0874C17.7622 16.654 18.9548 17.196 20.1871 17.7045C20.5627 17.8603 20.9445 18.013 21.3155 18.1596C21.3308 18.1642 21.34 18.1687 21.3552 18.1748C21.8592 18.3703 22.3569 18.5566 22.8501 18.7322C22.8654 18.7368 22.8746 18.7414 22.8837 18.7475L23.0502 18.8055C23.5877 18.9918 24.1099 19.1674 24.6337 19.3339C24.6428 19.3384 24.6535 19.343 24.6627 19.343C25.0735 19.4743 25.4735 19.5965 25.8751 19.7095C26.8814 20.0027 27.8633 20.2516 28.8024 20.4516L28.8068 20.4454ZM28.8221 20.9738C27.8647 21.667 26.7989 22.2198 25.6506 22.6016C24.5068 22.9772 23.2852 23.1834 22.0194 23.1834C20.4512 23.1834 18.9501 22.8703 17.588 22.3038C16.1664 21.7175 14.8914 20.8578 13.8209 19.7874C12.9215 18.8834 12.1642 17.8328 11.5976 16.6692C11.0647 15.5744 10.6937 14.3818 10.5272 13.1266C9.69654 12.5555 8.93 11.9783 8.23978 11.4118C7.47782 10.7766 6.7983 10.1414 6.22722 9.52141C5.82716 9.08621 5.47898 8.65715 5.18123 8.23568V8.26011C5.15679 8.49526 5.14152 8.74874 5.14152 9.02664C5.14152 9.11979 5.10793 9.20224 5.04838 9.2618C5.03922 9.27096 5.02853 9.27707 5.01937 9.28623C4.96134 9.33051 4.89263 9.35494 4.81475 9.35494C4.72618 9.35494 4.64373 9.32135 4.5857 9.2618C4.52767 9.20377 4.48797 9.11979 4.48797 9.02664C4.48797 7.84934 4.27267 7.03852 3.7703 6.53917C3.27252 6.04139 2.46627 5.8215 1.28283 5.8215C1.19427 5.8215 1.11181 5.7818 1.05378 5.72377H1.0492C0.991174 5.66575 0.956055 5.58176 0.956055 5.49472C0.956055 5.40616 0.989649 5.3237 1.05378 5.26567L1.0492 5.26109C1.11333 5.20307 1.19579 5.16795 1.28436 5.16795C2.46623 5.16795 3.27248 4.94806 3.77183 4.45028C4.27575 3.94636 4.4895 3.14011 4.4895 1.9628C4.4895 1.86966 4.5292 1.79178 4.58723 1.72765C4.64525 1.66962 4.72924 1.6345 4.81628 1.6345C4.90942 1.6345 4.9873 1.6681 5.05143 1.72765C5.10946 1.78568 5.14458 1.86966 5.14458 1.9628C5.14458 2.19796 5.15374 2.42244 5.17359 2.62704L5.18275 2.74462C5.58894 2.427 6.0913 2.17811 6.67309 1.9918C7.45034 1.7429 8.37417 1.60547 9.4186 1.57646C10.2539 1.55661 11.1777 1.60089 12.1641 1.71389C13.117 1.8162 14.1385 1.98722 15.2135 2.21167C15.9465 1.67875 16.7374 1.2344 17.588 0.883208C18.9516 0.316702 20.4511 0.00366211 22.0193 0.00366211C23.583 0.00366211 25.0824 0.316694 26.446 0.883208C27.8676 1.46957 29.1426 2.32926 30.2131 3.39968C31.2789 4.46554 32.1386 5.74514 32.7295 7.16219C33.1052 8.07531 33.3693 9.04801 33.5068 10.0604C33.8977 10.3292 34.284 10.6071 34.6551 10.8865C35.0613 11.1889 35.4415 11.4882 35.7942 11.7752C37.3487 13.061 38.5306 14.3497 39.2483 15.5622C39.9613 16.7593 40.2164 17.8985 39.9278 18.8895C39.9125 18.9429 39.8988 18.9963 39.8789 19.0452C39.8591 19.0941 39.8453 19.1429 39.8209 19.1918C39.5033 19.969 38.8726 20.5554 37.9885 20.9555C37.1044 21.3555 35.9607 21.5708 34.6169 21.606C33.4243 21.6396 32.0516 21.5327 30.5413 21.2929C29.9839 21.2044 29.4128 21.0975 28.8219 20.9753L28.8221 20.9738ZM25.4902 22.1129C26.4385 21.7999 27.3272 21.3647 28.138 20.8226C27.6784 20.7157 27.205 20.5982 26.7256 20.4714C26.5835 20.5493 26.4415 20.618 26.3011 20.6867C26.13 20.7646 25.9544 20.8425 25.7789 20.9158C25.6964 20.9448 25.6078 20.9402 25.5345 20.8868C25.417 20.8043 25.3879 20.6425 25.4704 20.5295C25.5391 20.4317 25.6078 20.334 25.6704 20.2363L25.6995 20.1874C25.362 20.0897 25.0245 19.9874 24.6825 19.879C24.4336 20.2409 24.1648 20.5539 23.8854 20.8119C23.5723 21.1005 23.2456 21.3204 22.9035 21.4625C22.8638 21.4777 22.8256 21.4869 22.7859 21.4869C22.6439 21.4869 22.5263 21.3739 22.5263 21.2273V19.1552C22.1889 19.033 21.8468 18.9063 21.5048 18.7734V21.2258C21.5048 21.2593 21.4956 21.2945 21.4849 21.3235C21.4315 21.4548 21.2803 21.5189 21.1475 21.4655C20.6924 21.2853 20.2526 20.957 19.848 20.5081C19.4418 20.0637 19.0708 19.4972 18.7394 18.8314C18.686 18.7291 18.6417 18.636 18.602 18.5535C18.5577 18.4558 18.5134 18.3581 18.4753 18.2695C18.4707 18.2496 18.46 18.2298 18.46 18.2115C18.4356 18.0695 18.5287 17.9381 18.6707 17.9137C18.8372 17.8847 19.0082 17.8603 19.1884 17.8312C18.402 17.4938 17.6339 17.1426 16.8872 16.7807L16.9406 16.9715V16.9761C16.9803 17.1136 16.8964 17.254 16.7605 17.2892C16.3695 17.4022 15.9939 17.5182 15.632 17.6511C15.2655 17.7885 14.9189 17.929 14.5906 18.0817C14.4883 18.1305 14.3615 18.1061 14.2882 18.013C13.8286 17.4602 13.424 16.8555 13.0911 16.2142C12.7781 15.6079 12.5246 14.9681 12.3337 14.2993C11.9138 14.0397 11.503 13.7817 11.1075 13.5175C11.2877 14.5482 11.616 15.5362 12.0604 16.4448C12.6025 17.5533 13.3217 18.5612 14.1859 19.4254C15.2075 20.447 16.4291 21.267 17.782 21.8289C19.086 22.3664 20.5138 22.6642 22.0179 22.6642C23.2303 22.6642 24.3969 22.4687 25.4872 22.1114L25.4902 22.1129ZM17.2077 2.76764C17.2168 2.76306 17.2229 2.75848 17.2321 2.75237C17.565 2.57218 17.907 2.41032 18.2582 2.26831C18.3407 2.23929 18.4293 2.24387 18.5071 2.29732C18.6201 2.37978 18.6491 2.54164 18.5652 2.65463C18.4338 2.84093 18.3117 3.03027 18.1941 3.22571L18.1849 3.24556L18.1605 3.27916C18.0429 3.47919 17.9315 3.68535 17.8276 3.89453C17.7391 4.07013 17.652 4.25642 17.568 4.45188C17.539 4.51602 17.51 4.57863 17.4856 4.64276V4.64734C17.4321 4.77866 17.3787 4.91151 17.3237 5.04282C17.2794 5.16498 17.1481 5.23828 17.0153 5.19857C16.7129 5.11612 16.4136 5.02297 16.1311 4.92066C15.8471 4.82294 15.5692 4.71604 15.305 4.59847C15.2714 4.5893 15.2409 4.56487 15.2165 4.54044C15.1233 4.43355 15.1279 4.27169 15.2317 4.17854C15.3142 4.10525 15.3936 4.03195 15.4761 3.96324C15.4852 3.94797 15.4959 3.94339 15.5097 3.93423C15.8716 3.62578 16.2579 3.34329 16.6625 3.08369C16.8381 2.97069 17.0198 2.8638 17.2046 2.76607L17.2077 2.76764ZM17.5543 3.30971L17.3787 3.26085C17.2275 3.34331 17.0809 3.43187 16.9389 3.52044C16.6946 3.67619 16.4549 3.84263 16.2258 4.01365L16.5098 4.08694C16.6961 4.13581 16.8916 4.18467 17.1008 4.2427C17.1832 4.04724 17.2764 3.85637 17.3695 3.66548C17.4337 3.54332 17.4917 3.42116 17.5558 3.30816L17.5543 3.30971ZM19.2355 3.48532C19.2401 3.47005 19.2508 3.4563 19.2599 3.44562C19.4462 3.15702 19.6463 2.89897 19.8509 2.67294C20.2509 2.23317 20.6816 1.90641 21.1366 1.7201C21.1702 1.70483 21.2099 1.69567 21.2496 1.69567C21.3916 1.69567 21.5092 1.80867 21.5092 1.94915V5.5834C21.5 5.72541 21.3825 5.8323 21.2405 5.82771C20.7762 5.81244 20.3166 5.77885 19.8768 5.73457C19.4172 5.6857 18.9774 5.62157 18.553 5.54828H18.5575C18.5377 5.5437 18.5239 5.53912 18.5041 5.53301C18.3728 5.47956 18.3086 5.32839 18.3621 5.20012C18.4018 5.09323 18.4445 4.9894 18.4888 4.89167C18.4934 4.88251 18.4934 4.87182 18.5041 4.86266L18.5438 4.76035C18.6079 4.62292 18.6751 4.48244 18.7438 4.34501C18.8996 4.03198 19.0614 3.74336 19.237 3.48075L19.2355 3.48532ZM19.8662 3.46547C20.0464 3.52349 20.2372 3.58763 20.4327 3.65634C20.6281 3.72047 20.8144 3.78308 20.99 3.84721V2.37216C20.7304 2.53402 20.477 2.7478 20.2326 3.01653C20.1059 3.15396 19.9883 3.30515 19.8662 3.46547ZM20.2724 4.14041C20.0525 4.06711 19.8173 3.98924 19.573 3.91136C19.4417 4.12208 19.3195 4.34199 19.2019 4.58017C19.1622 4.65804 19.1195 4.74203 19.0798 4.82448C19.2661 4.88251 19.4462 4.94206 19.6218 5.00009C19.8662 5.07797 20.1303 5.17111 20.4235 5.26884C20.6098 5.28869 20.7992 5.29785 20.99 5.30854V4.38928C20.7304 4.29613 20.4922 4.2137 20.2724 4.14041ZM23.0484 4.60919C23.1904 4.66263 23.3264 4.71608 23.4592 4.77105C23.6394 4.84434 23.8348 4.92222 24.041 5.01078L24.2853 5.10851L24.4609 5.18639C24.6716 5.16196 24.8763 5.13294 25.0809 5.09782L25.0274 4.97567C24.9633 4.83824 24.9007 4.70692 24.8411 4.58018C24.5281 3.96024 24.1815 3.43189 23.8058 3.01655V3.02113C23.5615 2.7478 23.3081 2.53249 23.0485 2.37062L23.0484 4.60919ZM23.2683 5.24899L23.0484 5.16043V5.30702C23.1553 5.30244 23.2637 5.29785 23.3706 5.28716L23.2683 5.24746V5.24899ZM24.4655 5.70405H24.4502C24.3525 5.71321 24.2593 5.72848 24.1662 5.73764C23.7264 5.78192 23.2775 5.81552 22.8179 5.83079C22.8087 5.83079 22.798 5.83537 22.7889 5.83537C22.6468 5.83537 22.5293 5.71779 22.5293 5.57578V1.95072H22.5339C22.5339 1.92171 22.5384 1.88659 22.5491 1.85758C22.6026 1.72626 22.7537 1.66212 22.8866 1.71557C23.3462 1.89575 23.7814 2.22406 24.186 2.67298C24.5922 3.11733 24.9633 3.68383 25.2946 4.34963C25.3679 4.48706 25.4321 4.62754 25.4947 4.76497C25.5527 4.89629 25.6122 5.0383 25.6703 5.18031C25.6794 5.20475 25.6855 5.22918 25.6901 5.25361C25.7145 5.39562 25.6214 5.52694 25.4855 5.55137C25.1526 5.6094 24.8167 5.65826 24.4639 5.70254L24.4655 5.70405ZM27.7592 6.70118C28.4234 7.03406 29.0694 7.36998 29.6893 7.71203C30.149 7.96551 30.5979 8.2251 31.0376 8.4847C30.9979 8.36254 30.9552 8.24496 30.9109 8.12739C30.5933 7.31656 30.1688 6.55918 29.6496 5.87508C29.3564 6.01251 29.0434 6.13925 28.7166 6.26599C28.399 6.38357 28.0722 6.49504 27.7348 6.59277L27.7592 6.69966L27.7592 6.70118ZM29.4404 8.16251C28.9426 7.88918 28.4296 7.61586 27.9058 7.35169C27.9837 7.73343 28.0524 8.12436 28.1104 8.51984L28.1257 8.61757C28.7212 8.9306 29.2938 9.24365 29.8405 9.56126C30.4116 9.89415 30.9643 10.2301 31.4927 10.5675H31.5019C31.453 10.1033 31.3705 9.65442 31.2575 9.21464C30.6758 8.86344 30.0695 8.5107 29.4404 8.16408L29.4404 8.16251ZM24.1678 19.7186C23.7968 19.5964 23.4257 19.4697 23.0486 19.3368V20.8119C23.215 20.7096 23.3814 20.5828 23.5418 20.4301C23.7571 20.2301 23.9663 19.9904 24.1678 19.717V19.7186ZM20.9917 18.5748C20.7138 18.468 20.4344 18.355 20.1519 18.2374C19.9274 18.2572 19.703 18.2817 19.4831 18.3107C19.3518 18.3305 19.2189 18.3504 19.0922 18.3687C19.1319 18.4573 19.17 18.5351 19.2052 18.6039C19.5136 19.2238 19.8602 19.7522 20.2359 20.1629C20.4802 20.4363 20.7337 20.6516 20.9933 20.8134V18.5749L20.9917 18.5748ZM16.2809 16.4783C15.3189 15.9988 14.395 15.501 13.5155 14.9971C13.3445 14.8994 13.1734 14.7971 13.0024 14.6993C13.1536 15.1391 13.3399 15.5697 13.5491 15.9744C13.8377 16.5317 14.1752 17.0539 14.5599 17.5334C14.8485 17.4067 15.1509 17.2845 15.4593 17.1715C15.7571 17.0646 16.0656 16.9608 16.3832 16.8692L16.3496 16.7424C16.3251 16.6447 16.3007 16.5562 16.2809 16.4783ZM6.83494 2.47905C6.19513 2.68366 5.67136 2.96768 5.28658 3.33416C5.34461 3.58764 5.42859 3.81365 5.53548 4.0091C5.6042 4.12668 5.67749 4.23815 5.75995 4.33588C5.99511 3.97857 6.39975 3.70065 6.94796 3.50062C7.58776 3.26547 8.4383 3.13873 9.45987 3.10972C10.0905 3.09445 10.7838 3.11888 11.5213 3.18759C12.2207 3.25172 12.9582 3.34945 13.7354 3.48536L13.824 3.39679C14.0973 3.12346 14.3814 2.86844 14.6791 2.62412C13.7797 2.44393 12.92 2.31109 12.1138 2.21793C11.1411 2.11104 10.2417 2.06675 9.43542 2.0866C8.43829 2.11562 7.55874 2.24236 6.8365 2.47751L6.83494 2.47905ZM13.3186 3.93581C12.6742 3.82892 12.0572 3.74952 11.477 3.69607C10.7532 3.63194 10.0844 3.60751 9.46904 3.62278C8.50705 3.64721 7.71452 3.76937 7.12358 3.98467C6.64409 4.15569 6.31276 4.39086 6.15088 4.68405C6.37077 4.83064 6.63495 4.93753 6.93727 5.01693C7.33276 5.11924 7.80154 5.1681 8.35432 5.1681C8.44289 5.1681 8.52534 5.2017 8.58337 5.26125C8.59253 5.27041 8.60322 5.2811 8.6078 5.29484C8.65208 5.34829 8.6811 5.417 8.6811 5.49488C8.6811 5.58344 8.6414 5.6659 8.58337 5.72393C8.52534 5.78195 8.44136 5.82165 8.35432 5.82165C7.84583 5.82165 7.40605 5.86135 7.035 5.94839C6.75709 6.00642 6.51279 6.09499 6.30205 6.21256C6.5311 6.68134 6.89299 7.19898 7.37705 7.75634C7.94355 8.41143 8.68108 9.10924 9.55148 9.82847C9.84466 10.0728 10.1531 10.3171 10.4753 10.5614C10.5883 9.27111 10.9151 8.04038 11.419 6.9058C11.8985 5.81552 12.5429 4.81381 13.3201 3.93427L13.3186 3.93581ZM10.964 10.9233C11.506 11.3188 12.0832 11.7097 12.694 12.1052H15.9832C16.1206 12.1052 16.2367 12.2121 16.2428 12.3541C16.2519 12.687 16.2718 13.0229 16.3008 13.3711C16.3252 13.6688 16.3542 13.962 16.3894 14.2415C16.7558 14.4278 17.1269 14.6171 17.5087 14.8034C17.4552 14.495 17.4155 14.1835 17.3773 13.8658C17.3239 13.3925 17.2888 12.8977 17.2704 12.3954V12.3618C17.2704 12.2198 17.3834 12.1083 17.5239 12.1083H21.2528C21.3949 12.1083 21.5124 12.2213 21.5124 12.3618V16.3733C21.5124 16.442 21.4834 16.5046 21.4391 16.5489C22.1568 16.8375 22.8653 17.1062 23.5739 17.3551C24.1068 17.5414 24.629 17.717 25.1466 17.8835L25.3665 17.9171C25.3864 17.9217 25.4062 17.9262 25.4245 17.9369C25.4581 17.9461 25.4887 17.9705 25.5131 17.995C25.7819 18.0774 26.046 18.1568 26.3102 18.2347C26.4278 18.2683 26.5393 18.2988 26.6568 18.3324C26.721 18.2637 26.8187 18.2301 26.9164 18.2545C27.1898 18.3324 27.4631 18.4103 27.7318 18.5034C28.0006 18.592 28.2602 18.6897 28.4984 18.7875C28.5182 18.7966 28.5426 18.8073 28.5564 18.8211C29.0939 18.9432 29.6161 19.0501 30.12 19.1433C31.0484 18.1568 31.7905 16.9933 32.3036 15.7136C32.8167 14.4432 33.0946 13.0506 33.0946 11.5939C33.0946 10.0944 32.7968 8.66204 32.2547 7.35797C31.6974 6.00507 30.8713 4.78348 29.8513 3.76192C28.8297 2.74035 27.6081 1.92038 26.2552 1.35845C24.9558 0.816376 23.5234 0.518621 22.024 0.518621C20.5184 0.518621 19.0922 0.816384 17.7881 1.35845C16.4352 1.92038 15.2136 2.74192 14.1921 3.76192C13.2301 4.7239 12.4483 5.85848 11.8909 7.11365C11.3687 8.29095 11.0449 9.57669 10.9671 10.925L10.964 10.9233ZM13.514 12.6183C13.8561 12.829 14.2072 13.0336 14.5646 13.2382C14.9799 13.4779 15.3998 13.7115 15.8396 13.9467C15.8198 13.7665 15.7999 13.5894 15.7862 13.4138C15.7663 13.1542 15.7465 12.8916 15.7373 12.6167H13.514L13.514 12.6183ZM18.0736 15.0767C18.8508 15.4478 19.6525 15.8097 20.4725 16.1517C20.5794 16.1471 20.6969 16.1364 20.8237 16.1319L20.9901 16.1227V12.6198H17.7895C17.8094 13.0199 17.843 13.4169 17.8873 13.8078C17.9361 14.243 18.0003 14.6675 18.0736 15.0783L18.0736 15.0767ZM30.7203 19.2501L30.818 19.2653C32.2198 19.4898 33.4856 19.5875 34.5713 19.5631C35.5333 19.5387 36.3304 19.4165 36.9168 19.2012C37.4452 19.0103 37.7918 18.7523 37.9338 18.4148L37.9536 18.3659L37.9689 18.3217C38.1201 17.7933 37.891 17.1001 37.3383 16.2892C36.7366 15.4097 35.7655 14.408 34.4889 13.3574C34.2888 13.191 34.0781 13.02 33.8582 12.8535C33.7605 12.7756 33.6628 12.6978 33.565 12.6245C33.4627 13.7728 33.194 14.8768 32.7832 15.9029C32.2854 17.1398 31.5861 18.2682 30.7218 19.2501L30.7203 19.2501ZM30.5248 10.5676C30.2164 10.3767 29.9049 10.1919 29.5811 10.0056C29.1322 9.74606 28.668 9.48801 28.2038 9.23911C28.2481 9.66974 28.2817 10.1141 28.3061 10.5676H30.5248ZM25.9652 8.10911C25.6812 7.97169 25.388 7.83578 25.0948 7.69835C24.7818 7.55634 24.4688 7.42043 24.1573 7.28301C23.7954 7.3166 23.4243 7.34714 23.0487 7.36546V10.566H26.2493C26.2203 9.94609 26.1607 9.34444 26.0737 8.76265C26.0447 8.53818 26.005 8.32288 25.9668 8.10757L25.9652 8.10911ZM25.3056 7.23414C25.4858 7.31202 25.6629 7.396 25.8385 7.47846C25.8049 7.34103 25.7744 7.20055 25.7408 7.06769C25.5453 7.10129 25.3499 7.13183 25.1498 7.16084L25.3056 7.23414ZM20.9903 10.566V7.36545C20.5261 7.34102 20.0711 7.30742 19.6267 7.25856C19.1778 7.20969 18.7319 7.14098 18.3028 7.06769C18.1654 7.60519 18.0494 8.17169 17.9654 8.76263C17.8829 9.34442 17.8188 9.9445 17.7898 10.566L20.9903 10.566ZM21.508 7.11656V10.821C21.508 10.9631 21.3904 11.0806 21.2484 11.0806H17.5103C17.3683 11.0761 17.2614 10.9585 17.266 10.8119C17.2904 10.0789 17.3592 9.37041 17.4569 8.69089C17.5592 7.99151 17.6966 7.32728 17.8631 6.70276C17.8967 6.57602 18.0295 6.49204 18.1608 6.51647C18.654 6.6142 19.1625 6.68749 19.6848 6.74552C20.1933 6.80355 20.7109 6.84325 21.2392 6.85852H21.2484C21.3904 6.85852 21.508 6.9761 21.508 7.11811L21.508 7.11656ZM4.13676 6.179C4.45438 6.49661 4.67426 6.90281 4.81628 7.40517C4.90484 7.09213 5.027 6.81423 5.18276 6.56991C5.35378 6.31032 5.5584 6.09042 5.81341 5.91482L5.83326 5.89955H5.83784C6.09132 5.72395 6.38449 5.5911 6.72654 5.49336C6.3112 5.37578 5.96 5.20476 5.67139 4.96501C5.43624 4.77413 5.24077 4.53438 5.08503 4.25191C4.97814 4.05188 4.88499 3.82742 4.81628 3.5831C4.67885 4.08703 4.45438 4.49166 4.13676 4.80927C3.81914 5.12688 3.41296 5.35134 2.90603 5.49336C3.41452 5.63537 3.81915 5.85526 4.13676 6.17745V6.179ZM22.5294 10.821V7.11656H22.534C22.534 6.97913 22.6409 6.86766 22.7783 6.86308C23.3113 6.84323 23.838 6.80505 24.3511 6.7455C24.8733 6.68747 25.3772 6.61418 25.8705 6.52103C26.0018 6.49202 26.1392 6.56989 26.1728 6.70122C26.3392 7.3273 26.4813 7.99153 26.579 8.68934C26.6767 9.35815 26.7454 10.0621 26.7699 10.7905C26.7745 10.7996 26.7745 10.8103 26.7745 10.8195C26.7745 10.9615 26.6569 11.0791 26.5149 11.0791H22.7859C22.6439 11.0791 22.5264 10.9615 22.5264 10.8195L22.5294 10.821ZM23.0471 12.6199V16.1228C23.496 16.1426 23.9358 16.1762 24.3664 16.2251C24.8062 16.2739 25.2414 16.332 25.6613 16.4052C25.8231 15.828 25.9499 15.2172 26.0522 14.5729C26.1453 13.9468 26.214 13.2933 26.2476 12.6183H23.0471V12.6199ZM22.5294 16.3732V12.3617C22.5294 12.2197 22.647 12.1082 22.789 12.1082H26.5271C26.6691 12.1128 26.776 12.2304 26.7714 12.3724C26.7424 13.1634 26.6691 13.9269 26.5561 14.6537C26.4431 15.4019 26.2873 16.1105 26.0965 16.764C26.0629 16.8953 25.93 16.9793 25.7987 16.9548C25.3192 16.8663 24.826 16.793 24.3129 16.735C23.8197 16.6815 23.3112 16.6464 22.8027 16.6281H22.7875C22.6455 16.6281 22.5279 16.5151 22.5279 16.3746L22.5294 16.3732ZM25.8567 3.24882C25.7346 3.04879 25.6078 2.85334 25.475 2.66246C25.4215 2.59375 25.4063 2.5006 25.4414 2.41356C25.4948 2.28224 25.646 2.21811 25.7789 2.27155C26.3362 2.49602 26.8691 2.76934 27.3715 3.08695C27.88 3.40914 28.3533 3.77104 28.7931 4.1711C28.8221 4.19553 28.8466 4.22912 28.8618 4.26424C28.9199 4.39556 28.8618 4.54826 28.7305 4.60171C28.4663 4.71928 28.1884 4.82617 27.9044 4.9239C27.6204 5.02621 27.3272 5.11936 27.0294 5.20181C26.8981 5.24151 26.7561 5.17738 26.7118 5.04606C26.6339 4.84144 26.55 4.646 26.4675 4.45512C26.3896 4.26883 26.3011 4.08406 26.2079 3.89776C26.0949 3.66872 25.9789 3.45342 25.8567 3.24725L25.8567 3.24882ZM26.3652 3.10223C26.4721 3.28852 26.5698 3.47329 26.6676 3.66874C26.7607 3.84892 26.8478 4.04438 26.9409 4.25053C26.9943 4.38185 27.0539 4.5147 27.1028 4.64601C27.3226 4.58188 27.5334 4.51469 27.7334 4.44139C27.8754 4.39253 28.0174 4.34367 28.1488 4.29022C27.8159 4.01231 27.4692 3.7573 27.0982 3.52369C26.863 3.37252 26.6187 3.23509 26.3652 3.10377L26.3652 3.10223ZM27.6021 8.5949C27.4952 7.86194 27.3532 7.15342 27.1715 6.48919C27.1379 6.35176 27.2158 6.21127 27.3517 6.17157C27.767 6.054 28.1625 5.92725 28.5397 5.78525C28.9107 5.64324 29.2726 5.49206 29.6147 5.32561C29.7216 5.27217 29.8544 5.30118 29.9323 5.39433C30.5339 6.16086 31.0271 7.02211 31.3829 7.94439C31.7341 8.83922 31.9601 9.79663 32.038 10.7938V10.8228C32.038 10.9648 31.925 11.0824 31.7845 11.0824H28.0556C27.9182 11.0824 27.8021 10.9694 27.8021 10.8335C27.7731 10.0669 27.7044 9.3187 27.6021 8.5949ZM28.306 12.6217C28.2663 13.3836 28.1931 14.1166 28.0862 14.8205C27.9793 15.5382 27.8373 16.2223 27.6617 16.8728C27.9793 16.9659 28.2816 17.0682 28.5809 17.1751C28.8894 17.2881 29.1917 17.4103 29.4803 17.537C30.0468 16.8285 30.5111 16.0375 30.8577 15.1824C31.1844 14.3808 31.4043 13.5211 31.502 12.6217L28.306 12.6217ZM27.5777 14.7426C27.6952 13.9807 27.7731 13.1882 27.8021 12.3773L27.7976 12.3621C27.7976 12.2201 27.9151 12.1086 28.0571 12.1086H31.8013C31.9433 12.1177 32.0502 12.2399 32.041 12.3819C31.9586 13.4371 31.7143 14.4388 31.3371 15.3779C30.9462 16.3353 30.4087 17.2256 29.7536 18.0119C29.6849 18.1051 29.5536 18.1387 29.4452 18.0852C29.1184 17.9341 28.7702 17.7921 28.4037 17.6546C28.0464 17.5279 27.6753 17.4057 27.289 17.2973L27.2737 17.2927C27.1363 17.253 27.0539 17.1125 27.0936 16.9751C27.2936 16.2757 27.4601 15.529 27.5777 14.7426ZM18.1869 19.9421C18.3044 20.1422 18.4312 20.3376 18.5625 20.5239C18.6159 20.5972 18.6312 20.6904 18.5961 20.7774C18.5426 20.9087 18.3961 20.9729 18.2632 20.9194C17.7501 20.7148 17.2615 20.4644 16.7973 20.1865C16.3331 19.9024 15.8933 19.5802 15.4826 19.229C15.449 19.2046 15.4184 19.1649 15.4001 19.1222C15.3467 18.9908 15.4093 18.8381 15.5421 18.7893C15.7818 18.6915 16.0399 18.5938 16.3086 18.5052C16.5774 18.4121 16.8507 18.3342 17.1302 18.2563C17.2523 18.2273 17.3837 18.2899 17.4325 18.4121C17.4967 18.5679 17.5593 18.7206 17.6234 18.861C17.6921 19.0122 17.7608 19.1542 17.828 19.2916C17.941 19.5207 18.0632 19.736 18.1853 19.9422L18.1869 19.9421ZM17.6738 20.0841C17.5715 19.904 17.4692 19.7177 17.3714 19.5222C17.2982 19.371 17.2249 19.2244 17.1561 19.0733C17.1225 18.9847 17.0828 18.9023 17.0431 18.8137C16.8477 18.8717 16.6568 18.9313 16.4721 18.9893C16.3652 19.029 16.2522 19.0672 16.1453 19.1069C16.4385 19.3359 16.7469 19.5512 17.0691 19.7467C17.2646 19.8643 17.4692 19.9818 17.6753 20.0841L17.6738 20.0841ZM15.7391 10.571C15.7681 9.86703 15.8368 9.18293 15.93 8.52327C16.0277 7.85447 16.1544 7.2131 16.3117 6.59773C15.9697 6.50001 15.6429 6.38701 15.3253 6.26485C14.9985 6.14269 14.6855 6.01595 14.3923 5.87852C13.8747 6.56262 13.4486 7.32 13.1371 8.13083C12.8348 8.89736 12.6332 9.71889 12.5416 10.5694H15.7422L15.7391 10.571ZM16.4385 8.59657C16.3362 9.31424 16.2675 10.0533 16.243 10.8153V10.8245C16.243 10.9665 16.1254 11.084 15.9834 11.084H12.2408C12.0988 11.0749 11.9919 10.9466 12.0011 10.8061C12.0789 9.809 12.3034 8.84701 12.6561 7.94761C13.0135 7.02834 13.5067 6.17323 14.1022 5.4067C14.1755 5.30897 14.3129 5.26927 14.4244 5.32882C14.7664 5.49526 15.1283 5.64643 15.4994 5.78845C15.875 5.93046 16.2659 6.0572 16.6813 6.17478H16.6858C16.8233 6.21448 16.9057 6.35496 16.866 6.49239C16.6904 7.15662 16.5438 7.86515 16.4354 8.5981L16.4385 8.59657Z" fill="#00FF00"/>
</svg>
