<svg width="32" height="37" viewBox="0 0 32 37" fill="none" xmlns="http://www.w3.org/2000/svg">
<path fill-rule="evenodd" clip-rule="evenodd" d="M12.8133 6.9694C12.6254 8.22078 12.5883 9.17079 12.7442 9.8819C13.7785 10.8625 16.0785 10.9472 20.2012 10.9472C20.2753 10.9472 20.3443 10.9875 20.3852 11.0583L20.9861 12.1902C21.0104 12.2263 21.0232 12.2708 21.0232 12.3194C21.0232 12.443 20.9286 12.5458 20.8109 12.5458C16.2753 12.5458 13.8858 12.6486 12.3863 13.9527C10.8829 15.2625 10.1964 17.8318 9.05989 22.7638C9.0471 22.8221 9.01514 22.8749 8.96145 22.9054C8.86301 22.9679 8.73261 22.9318 8.67509 22.8207L8.07038 21.6846C8.04226 21.636 8.02948 21.5693 8.04609 21.5068C8.96527 17.5025 9.4677 15.0609 9.14553 13.6096C8.6431 13.1346 7.83772 12.8721 6.66926 12.7221C5.4356 12.5665 3.79669 12.5443 1.68489 12.5443C1.61075 12.5443 1.54171 12.504 1.50464 12.4332L0.899937 11.3012C0.879483 11.261 0.866699 11.2207 0.866699 11.1721C0.866699 11.0484 0.956189 10.9457 1.07508 10.9457C5.61468 10.9457 8.00017 10.8387 9.49974 9.53874C11.0032 8.22901 11.6896 5.65963 12.8261 0.727717C12.8389 0.669384 12.8709 0.616606 12.9246 0.586049C13.023 0.52355 13.1534 0.55966 13.2109 0.670771L13.8156 1.80688C13.8438 1.85549 13.8565 1.91799 13.8438 1.98466C13.3733 4.02217 13.0102 5.66394 12.8147 6.96954L12.8133 6.9694ZM22.8936 20.1445C22.7057 21.3959 22.6648 22.3459 22.8246 23.057C23.8588 24.0376 26.1588 24.1181 30.2815 24.1181C30.3556 24.1223 30.4247 24.1626 30.4617 24.2334L31.0664 25.3654C31.0869 25.4015 31.1035 25.4459 31.1035 25.4945C31.1035 25.6181 31.0089 25.7209 30.8913 25.7209C26.3517 25.7209 23.9662 25.8237 22.4666 27.1278C20.9632 28.4334 20.2767 31.0027 19.1402 35.9389C19.1275 35.9972 19.0917 36.05 19.0418 36.0805C18.9395 36.143 18.813 36.1069 18.7554 35.9958L18.1507 34.8597C18.1175 34.8069 18.1098 34.7444 18.1226 34.6819C19.0456 30.6777 19.5442 28.2361 19.2221 26.7847C18.7235 26.3097 17.9181 26.0472 16.7496 25.8972C15.5121 25.7416 13.8732 25.7194 11.7652 25.7194C11.6911 25.7194 11.6221 25.6791 11.5812 25.6083L10.9803 24.4763C10.956 24.4361 10.9432 24.3916 10.9432 24.3472C10.9432 24.218 11.0378 24.1166 11.1555 24.1166C15.6911 24.1166 18.0805 24.0138 19.5801 22.7097C21.0835 21.4041 21.77 18.8348 22.9065 13.9026C22.9193 13.8442 22.9513 13.7915 23.0049 13.7609C23.1034 13.6984 23.2299 13.7345 23.2913 13.8415L23.896 14.9817C23.9241 15.0303 23.9369 15.0928 23.9203 15.1595C23.455 17.197 23.0906 18.8388 22.895 20.1444L22.8936 20.1445ZM22.5011 23.3584C22.5011 23.3543 22.4973 23.3501 22.4935 23.3445C21.8146 22.6653 21.6063 21.6403 21.7341 20.0904C21.7379 20.0237 21.7418 19.957 21.7507 19.8862C21.2278 21.3556 20.6475 22.3626 19.8421 23.064C19.0252 23.7737 17.9909 24.1515 16.5654 24.3515C16.7738 24.3876 16.9694 24.4265 17.1573 24.4668C18.5623 24.7959 19.3229 25.4209 19.6093 26.5932C19.6131 26.6071 19.6131 26.6154 19.617 26.6293C19.7512 27.2154 19.764 27.9348 19.6822 28.8182C20.2051 27.3446 20.7854 26.332 21.5947 25.6265C22.4116 24.9167 23.4458 24.539 24.875 24.339C23.7883 24.1654 23.0163 23.8681 22.5011 23.3584ZM12.4261 10.1833L12.4133 10.1694C11.7344 9.49023 11.5261 8.46943 11.6539 6.91526C11.6577 6.8486 11.6667 6.78193 11.6705 6.7111C11.1476 8.18054 10.5672 9.19305 9.76186 9.88887C8.94495 10.5986 7.91074 10.9805 6.48913 11.1805C6.69751 11.2111 6.89312 11.2514 7.07721 11.2916C8.48219 11.6208 9.24284 12.2458 9.5292 13.4222C9.53304 13.4305 9.53687 13.4403 9.53687 13.4528C9.67111 14.0389 9.68773 14.7583 9.60207 15.6416C10.125 14.168 10.7053 13.1555 11.5146 12.45C12.3315 11.7402 13.3696 11.3625 14.7948 11.1625C13.7082 10.9888 12.936 10.6916 12.4247 10.1819L12.4261 10.1833Z" fill="#00FF00"/>
</svg>
